<?xml version="1.0" encoding="UTF-8" standalone="no"?>
<!DOCTYPE svg PUBLIC "-//W3C//DTD SVG 1.1//EN"
 "http://www.w3.org/Graphics/SVG/1.1/DTD/svg11.dtd">
<!-- Generated by graphviz version 2.36.0 (20140111.2315)
 -->
<!-- Title: %3 Pages: 1 -->
<svg width="620pt" height="98pt"
 viewBox="0.00 0.00 620.00 98.00" xmlns="http://www.w3.org/2000/svg" xmlns:xlink="http://www.w3.org/1999/xlink">
<g id="graph0" class="graph" transform="scale(1 1) rotate(0) translate(4 94)">
<title>%3</title>
<!-- SourceFactory -->
<g id="node1" class="node"><title>SourceFactory</title>
<ellipse fill="none" stroke="black" cx="63" cy="-72" rx="61.8563" ry="18"/>
<text text-anchor="middle" x="63" y="-67.8" font-family="Times,serif" font-size="14.00">SourceFactory</text>
</g>
<!-- SourceInitiator -->
<g id="node2" class="node"><title>SourceInitiator</title>
<ellipse fill="none" stroke="black" cx="225" cy="-45" rx="63.301" ry="18"/>
<text text-anchor="middle" x="225" y="-40.8" font-family="Times,serif" font-size="14.00">SourceInitiator</text>
</g>
<!-- SourceFactory&#45;&gt;SourceInitiator -->
<g id="edge1" class="edge"><title>SourceFactory&#45;&gt;SourceInitiator</title>
<path fill="none" stroke="black" d="M116.833,-63.0844C130.604,-60.7606 145.593,-58.2313 159.878,-55.8207"/>
<polygon fill="black" stroke="black" points="160.849,-59.2062 170.128,-54.091 159.684,-52.3038 160.849,-59.2062"/>
</g>
<!-- SinkTalkback -->
<g id="node3" class="node"><title>SinkTalkback</title>
<ellipse fill="none" stroke="black" cx="383" cy="-45" rx="58.7156" ry="18"/>
<text text-anchor="middle" x="383" y="-40.8" font-family="Times,serif" font-size="14.00">SinkTalkback</text>
</g>
<!-- SourceInitiator&#45;&gt;SinkTalkback -->
<g id="edge2" class="edge"><title>SourceInitiator&#45;&gt;SinkTalkback</title>
<path fill="none" stroke="black" d="M288.552,-45C296.929,-45 305.553,-45 314.017,-45"/>
<polygon fill="black" stroke="black" points="314.235,-48.5001 324.235,-45 314.235,-41.5001 314.235,-48.5001"/>
</g>
<!-- SourceTalkback -->
<g id="node5" class="node"><title>SourceTalkback</title>
<ellipse fill="none" stroke="black" cx="545" cy="-45" rx="66.8919" ry="18"/>
<text text-anchor="middle" x="545" y="-40.8" font-family="Times,serif" font-size="14.00">SourceTalkback</text>
</g>
<!-- SinkTalkback&#45;&gt;SourceTalkback -->
<g id="edge4" class="edge"><title>SinkTalkback&#45;&gt;SourceTalkback</title>
<path fill="none" stroke="black" d="M441.764,-45C450.192,-45 458.978,-45 467.704,-45"/>
<polygon fill="black" stroke="black" points="467.897,-48.5001 477.897,-45 467.897,-41.5001 467.897,-48.5001"/>
</g>
<!-- SinkConnector -->
<g id="node4" class="node"><title>SinkConnector</title>
<ellipse fill="none" stroke="black" cx="63" cy="-18" rx="63.327" ry="18"/>
<text text-anchor="middle" x="63" y="-13.8" font-family="Times,serif" font-size="14.00">SinkConnector</text>
</g>
<!-- SinkConnector&#45;&gt;SourceInitiator -->
<g id="edge3" class="edge"><title>SinkConnector&#45;&gt;SourceInitiator</title>
<path fill="none" stroke="black" d="M117.723,-27.0657C131.311,-29.3587 146.036,-31.8436 160.073,-34.2124"/>
<polygon fill="black" stroke="black" points="159.704,-37.6994 170.147,-35.9122 160.868,-30.797 159.704,-37.6994"/>
</g>
</g>
</svg>
