<?xml version="1.0" encoding="UTF-8" standalone="no"?>
<!DOCTYPE svg PUBLIC "-//W3C//DTD SVG 1.1//EN"
 "http://www.w3.org/Graphics/SVG/1.1/DTD/svg11.dtd">
<!-- Generated by graphviz version 2.36.0 (20140111.2315)
 -->
<!-- Title: %3 Pages: 1 -->
<svg width="568pt" height="98pt"
 viewBox="0.00 0.00 568.00 98.00" xmlns="http://www.w3.org/2000/svg" xmlns:xlink="http://www.w3.org/1999/xlink">
<g id="graph0" class="graph" transform="scale(1 1) rotate(0) translate(4 94)">
<title>%3</title>
<!-- s1 -->
<g id="node1" class="node"><title>s1</title>
<ellipse fill="none" stroke="black" cx="33" cy="-72" rx="33.3752" ry="18"/>
<text text-anchor="middle" x="33" y="-67.8" font-family="Times,serif" font-size="14.00">source</text>
</g>
<!-- o1 -->
<g id="node2" class="node"><title>o1</title>
<polygon fill="none" stroke="black" points="165.143,-90 102.857,-90 102.857,-54 165.143,-54 165.143,-90"/>
<text text-anchor="middle" x="134" y="-67.8" font-family="Times,serif" font-size="14.00">operator</text>
</g>
<!-- s1&#45;&gt;o1 -->
<g id="edge1" class="edge"><title>s1&#45;&gt;o1</title>
<path fill="none" stroke="black" d="M66.4163,-72C74.6751,-72 83.657,-72 92.2726,-72"/>
<polygon fill="black" stroke="black" points="92.5269,-75.5001 102.527,-72 92.5269,-68.5001 92.5269,-75.5001"/>
</g>
<!-- s2 -->
<g id="node3" class="node"><title>s2</title>
<ellipse fill="none" stroke="black" cx="235" cy="-72" rx="33.3752" ry="18"/>
<text text-anchor="middle" x="235" y="-67.8" font-family="Times,serif" font-size="14.00">source</text>
</g>
<!-- o1&#45;&gt;s2 -->
<g id="edge2" class="edge"><title>o1&#45;&gt;s2</title>
<path fill="none" stroke="black" d="M165.241,-72C173.497,-72 182.6,-72 191.405,-72"/>
<polygon fill="black" stroke="black" points="191.537,-75.5001 201.537,-72 191.537,-68.5001 191.537,-75.5001"/>
</g>
<!-- o2 -->
<g id="node4" class="node"><title>o2</title>
<polygon fill="none" stroke="black" points="367.143,-90 304.857,-90 304.857,-54 367.143,-54 367.143,-90"/>
<text text-anchor="middle" x="336" y="-67.8" font-family="Times,serif" font-size="14.00">operator</text>
</g>
<!-- s2&#45;&gt;o2 -->
<g id="edge3" class="edge"><title>s2&#45;&gt;o2</title>
<path fill="none" stroke="black" d="M268.416,-72C276.675,-72 285.657,-72 294.273,-72"/>
<polygon fill="black" stroke="black" points="294.527,-75.5001 304.527,-72 294.527,-68.5001 294.527,-75.5001"/>
</g>
<!-- s3 -->
<g id="node5" class="node"><title>s3</title>
<ellipse fill="none" stroke="black" cx="437" cy="-72" rx="33.3752" ry="18"/>
<text text-anchor="middle" x="437" y="-67.8" font-family="Times,serif" font-size="14.00">source</text>
</g>
<!-- o2&#45;&gt;s3 -->
<g id="edge4" class="edge"><title>o2&#45;&gt;s3</title>
<path fill="none" stroke="black" d="M367.241,-72C375.497,-72 384.6,-72 393.405,-72"/>
<polygon fill="black" stroke="black" points="393.537,-75.5001 403.537,-72 393.537,-68.5001 393.537,-75.5001"/>
</g>
<!-- sink -->
<g id="node6" class="node"><title>sink</title>
<ellipse fill="none" stroke="black" cx="533" cy="-72" rx="27" ry="18"/>
<text text-anchor="middle" x="533" y="-67.8" font-family="Times,serif" font-size="14.00">sink</text>
</g>
<!-- s3&#45;&gt;sink -->
<g id="edge5" class="edge"><title>s3&#45;&gt;sink</title>
<path fill="none" stroke="black" d="M470.349,-72C478.49,-72 487.282,-72 495.605,-72"/>
<polygon fill="black" stroke="black" points="495.814,-75.5001 505.814,-72 495.814,-68.5001 495.814,-75.5001"/>
</g>
<!-- args -->
<g id="node7" class="node"><title>args</title>
<ellipse fill="none" stroke="black" cx="33" cy="-18" rx="27" ry="18"/>
<text text-anchor="middle" x="33" y="-13.8" font-family="Times,serif" font-size="14.00">args</text>
</g>
<!-- args&#45;&gt;o1 -->
<g id="edge6" class="edge"><title>args&#45;&gt;o1</title>
<path fill="none" stroke="black" d="M54.5129,-29.1888C65.833,-35.3635 80.276,-43.2415 93.6786,-50.5519"/>
<polygon fill="black" stroke="black" points="92.2849,-53.7785 102.74,-55.4945 95.6369,-47.6333 92.2849,-53.7785"/>
</g>
<!-- args2 -->
<g id="node8" class="node"><title>args2</title>
<ellipse fill="none" stroke="black" cx="235" cy="-18" rx="27" ry="18"/>
<text text-anchor="middle" x="235" y="-13.8" font-family="Times,serif" font-size="14.00">args</text>
</g>
<!-- args2&#45;&gt;o2 -->
<g id="edge7" class="edge"><title>args2&#45;&gt;o2</title>
<path fill="none" stroke="black" d="M256.513,-29.1888C267.833,-35.3635 282.276,-43.2415 295.679,-50.5519"/>
<polygon fill="black" stroke="black" points="294.285,-53.7785 304.74,-55.4945 297.637,-47.6333 294.285,-53.7785"/>
</g>
</g>
</svg>
