<?xml version="1.0" encoding="UTF-8" standalone="no"?>
<!DOCTYPE svg PUBLIC "-//W3C//DTD SVG 1.1//EN"
 "http://www.w3.org/Graphics/SVG/1.1/DTD/svg11.dtd">
<!-- Generated by graphviz version 2.36.0 (20140111.2315)
 -->
<!-- Title: %3 Pages: 1 -->
<svg width="494pt" height="152pt"
 viewBox="0.00 0.00 494.00 152.00" xmlns="http://www.w3.org/2000/svg" xmlns:xlink="http://www.w3.org/1999/xlink">
<g id="graph0" class="graph" transform="scale(1 1) rotate(0) translate(4 148)">
<title>%3</title>
<g id="clust1" class="cluster"><title>cluster_component</title>
<polygon fill="none" stroke="black" points="8,-8 8,-136 86,-136 86,-8 8,-8"/>
<text text-anchor="middle" x="47" y="-120.8" font-family="Times,serif" font-size="14.00">component</text>
</g>
<g id="clust3" class="cluster"><title>cluster_actioncreator</title>
<polygon fill="none" stroke="black" points="106,-8 106,-136 198,-136 198,-8 106,-8"/>
<text text-anchor="middle" x="152" y="-120.8" font-family="Times,serif" font-size="14.00">action creator</text>
</g>
<g id="clust5" class="cluster"><title>cluster_reducer</title>
<polygon fill="none" stroke="black" points="218,-8 218,-136 478,-136 478,-8 218,-8"/>
<text text-anchor="middle" x="348" y="-120.8" font-family="Times,serif" font-size="14.00">battlefield reducer</text>
</g>
<!-- bogus -->
<g id="node1" class="node"><title>bogus</title>
<ellipse fill="none" stroke="none" cx="47" cy="-34" rx="31.4723" ry="18"/>
<text text-anchor="middle" x="47" y="-29.8" font-family="Times,serif" font-size="14.00" fill="#fffffe">bogus</text>
</g>
<!-- fire -->
<g id="node2" class="node"><title>fire</title>
<ellipse fill="none" stroke="black" cx="47" cy="-88" rx="27" ry="18"/>
<text text-anchor="middle" x="47" y="-83.8" font-family="Times,serif" font-size="14.00">fire</text>
</g>
<!-- bogus&#45;&gt;fire -->
<g id="edge1" class="edge"><title>bogus&#45;&gt;fire</title>
<path fill="none" stroke="none" d="M47,-52.1406C47,-54.6226 47,-57.1046 47,-59.5865"/>
<polygon fill="none" stroke="none" points="43.5001,-59.7901 47,-69.7902 50.5001,-59.7902 43.5001,-59.7901"/>
</g>
<!-- kill -->
<g id="node4" class="node"><title>kill</title>
<ellipse fill="none" stroke="black" cx="152" cy="-34" rx="27" ry="18"/>
<text text-anchor="middle" x="152" y="-29.8" font-family="Times,serif" font-size="14.00">kill</text>
</g>
<!-- bogus&#45;&gt;kill -->
<g id="edge3" class="edge"><title>bogus&#45;&gt;kill</title>
<path fill="none" stroke="none" d="M78.3463,-34C89.7286,-34 102.779,-34 114.651,-34"/>
<polygon fill="none" stroke="none" points="114.709,-37.5001 124.709,-34 114.709,-30.5001 114.709,-37.5001"/>
</g>
<!-- aim -->
<g id="node3" class="node"><title>aim</title>
<ellipse fill="none" stroke="black" cx="152" cy="-88" rx="27" ry="18"/>
<text text-anchor="middle" x="152" y="-83.8" font-family="Times,serif" font-size="14.00">aim</text>
</g>
<!-- fire&#45;&gt;aim -->
<g id="edge2" class="edge"><title>fire&#45;&gt;aim</title>
<path fill="none" stroke="black" d="M74.2578,-88C86.4855,-88 101.236,-88 114.523,-88"/>
<polygon fill="black" stroke="black" points="114.79,-91.5001 124.79,-88 114.79,-84.5001 114.79,-91.5001"/>
</g>
<!-- aim&#45;&gt;kill -->
<g id="edge4" class="edge"><title>aim&#45;&gt;kill</title>
<path fill="none" stroke="black" d="M152,-69.7902C152,-67.3082 152,-64.8262 152,-62.3443"/>
<polygon fill="black" stroke="black" points="155.5,-62.1406 152,-52.1406 148.5,-62.1407 155.5,-62.1406"/>
</g>
<!-- aiming -->
<g id="node6" class="node"><title>aiming</title>
<ellipse fill="none" stroke="black" cx="282" cy="-88" rx="55.4196" ry="18"/>
<text text-anchor="middle" x="282" y="-83.8" font-family="Times,serif" font-size="14.00">&#39;X aims at Y&#39;</text>
</g>
<!-- aim&#45;&gt;aiming -->
<g id="edge7" class="edge"><title>aim&#45;&gt;aiming</title>
<path fill="none" stroke="black" d="M179.212,-88C190.052,-88 203.147,-88 216.282,-88"/>
<polygon fill="black" stroke="black" points="216.297,-91.5001 226.297,-88 216.297,-84.5001 216.297,-91.5001"/>
</g>
<!-- branching -->
<g id="node5" class="node"><title>branching</title>
<polygon fill="none" stroke="black" points="282,-52 237.297,-34 282,-16 326.703,-34 282,-52"/>
<text text-anchor="middle" x="282" y="-29.8" font-family="Times,serif" font-size="14.00">valid?</text>
</g>
<!-- kill&#45;&gt;branching -->
<g id="edge8" class="edge"><title>kill&#45;&gt;branching</title>
<path fill="none" stroke="black" d="M179.212,-34C193.021,-34 210.489,-34 227.037,-34"/>
<polygon fill="black" stroke="black" points="227.182,-37.5001 237.182,-34 227.182,-30.5001 227.182,-37.5001"/>
</g>
<!-- spam -->
<g id="node7" class="node"><title>spam</title>
<ellipse fill="none" stroke="black" cx="422" cy="-34" rx="28.5497" ry="18"/>
<text text-anchor="middle" x="422" y="-29.8" font-family="Times,serif" font-size="14.00">spam</text>
</g>
<!-- branching&#45;&gt;spam -->
<g id="edge5" class="edge"><title>branching&#45;&gt;spam</title>
<path fill="none" stroke="black" d="M327.043,-34C344.942,-34 365.43,-34 382.696,-34"/>
<polygon fill="black" stroke="black" points="382.979,-37.5001 392.979,-34 382.979,-30.5001 382.979,-37.5001"/>
</g>
<!-- actual -->
<g id="node8" class="node"><title>actual</title>
<ellipse fill="none" stroke="black" cx="422" cy="-88" rx="47.8665" ry="18"/>
<text text-anchor="middle" x="422" y="-83.8" font-family="Times,serif" font-size="14.00">Actual kill</text>
</g>
<!-- branching&#45;&gt;actual -->
<g id="edge6" class="edge"><title>branching:n&#45;&gt;actual</title>
<path fill="none" stroke="black" d="M282,-53C282,-65.5708 325.755,-58.1562 338,-61 350.928,-64.0024 364.725,-68.1109 377.284,-72.2171"/>
<polygon fill="black" stroke="black" points="376.456,-75.6308 387.05,-75.4885 378.679,-68.9933 376.456,-75.6308"/>
</g>
</g>
</svg>
