<?xml version="1.0" encoding="UTF-8" standalone="no"?>
<!DOCTYPE svg PUBLIC "-//W3C//DTD SVG 1.1//EN"
 "http://www.w3.org/Graphics/SVG/1.1/DTD/svg11.dtd">
<!-- Generated by graphviz version 2.36.0 (20140111.2315)
 -->
<!-- Title: %3 Pages: 1 -->
<svg width="328pt" height="314pt"
 viewBox="0.00 0.00 328.00 314.00" xmlns="http://www.w3.org/2000/svg" xmlns:xlink="http://www.w3.org/1999/xlink">
<g id="graph0" class="graph" transform="scale(1 1) rotate(0) translate(4 310)">
<title>%3</title>
<polygon fill="white" stroke="none" points="-4,4 -4,-310 324,-310 324,4 -4,4"/>
<g id="clust1" class="cluster"><title>cluster_components</title>
<polygon fill="none" stroke="black" stroke-dasharray="5,2" points="8,-8 8,-298 166,-298 166,-8 8,-8"/>
<text text-anchor="middle" x="87" y="-282.8" font-family="Times,serif" font-size="14.00">Components</text>
</g>
<g id="clust2" class="cluster"><title>cluster_services</title>
<polygon fill="none" stroke="black" stroke-dasharray="5,2" points="174,-8 174,-298 312,-298 312,-8 174,-8"/>
<text text-anchor="middle" x="243" y="-282.8" font-family="Times,serif" font-size="14.00">Services</text>
</g>
<!-- App -->
<g id="node1" class="node"><title>App</title>
<ellipse fill="none" stroke="black" cx="87" cy="-250" rx="27" ry="18"/>
<text text-anchor="middle" x="87" y="-245.8" font-family="Times,serif" font-size="14.00">App</text>
</g>
<!-- Battle -->
<g id="node2" class="node"><title>Battle</title>
<ellipse fill="none" stroke="black" cx="87" cy="-178" rx="31.3408" ry="18"/>
<text text-anchor="middle" x="87" y="-173.8" font-family="Times,serif" font-size="14.00">Battle</text>
</g>
<!-- App&#45;&gt;Battle -->
<g id="edge1" class="edge"><title>App&#45;&gt;Battle</title>
<path fill="none" stroke="black" d="M87,-231.697C87,-223.983 87,-214.712 87,-206.112"/>
<polygon fill="black" stroke="black" points="90.5001,-206.104 87,-196.104 83.5001,-206.104 90.5001,-206.104"/>
</g>
<!-- Combatant -->
<g id="node3" class="node"><title>Combatant</title>
<ellipse fill="none" stroke="black" cx="87" cy="-106" rx="48.3713" ry="18"/>
<text text-anchor="middle" x="87" y="-101.8" font-family="Times,serif" font-size="14.00">Combatant</text>
</g>
<!-- Battle&#45;&gt;Combatant -->
<g id="edge2" class="edge"><title>Battle&#45;&gt;Combatant</title>
<path fill="none" stroke="black" d="M87,-159.697C87,-151.983 87,-142.712 87,-134.112"/>
<polygon fill="black" stroke="black" points="90.5001,-134.104 87,-124.104 83.5001,-134.104 90.5001,-134.104"/>
</g>
<!-- CombatantDetail -->
<g id="node4" class="node"><title>CombatantDetail</title>
<ellipse fill="none" stroke="black" cx="87" cy="-34" rx="70.2819" ry="18"/>
<text text-anchor="middle" x="87" y="-29.8" font-family="Times,serif" font-size="14.00">CombatantDetail</text>
</g>
<!-- Combatant&#45;&gt;CombatantDetail -->
<g id="edge3" class="edge"><title>Combatant&#45;&gt;CombatantDetail</title>
<path fill="none" stroke="black" d="M87,-87.6966C87,-79.9827 87,-70.7125 87,-62.1124"/>
<polygon fill="black" stroke="black" points="90.5001,-62.1043 87,-52.1043 83.5001,-62.1044 90.5001,-62.1043"/>
</g>
<!-- AuthService -->
<g id="node5" class="node"><title>AuthService</title>
<ellipse fill="none" stroke="black" cx="243" cy="-250" rx="53.968" ry="18"/>
<text text-anchor="middle" x="243" y="-245.8" font-family="Times,serif" font-size="14.00">AuthService</text>
</g>
<!-- AuthService&#45;&gt;App -->
<g id="edge7" class="edge"><title>AuthService&#45;&gt;App</title>
<path fill="none" stroke="black" d="M188.628,-250C167.186,-250 145.745,-250 124.304,-250"/>
<polygon fill="black" stroke="black" points="124.117,-246.5 114.117,-250 124.117,-253.5 124.117,-246.5"/>
</g>
<!-- UrlService -->
<g id="node6" class="node"><title>UrlService</title>
<ellipse fill="none" stroke="black" cx="243" cy="-178" rx="48.1195" ry="18"/>
<text text-anchor="middle" x="243" y="-173.8" font-family="Times,serif" font-size="14.00">UrlService</text>
</g>
<!-- AuthService&#45;&gt;UrlService -->
<g id="edge4" class="edge"><title>AuthService&#45;&gt;UrlService</title>
<path fill="none" stroke="black" d="M243,-231.697C243,-223.983 243,-214.712 243,-206.112"/>
<polygon fill="black" stroke="black" points="246.5,-206.104 243,-196.104 239.5,-206.104 246.5,-206.104"/>
</g>
<!-- GithubService -->
<g id="node7" class="node"><title>GithubService</title>
<ellipse fill="none" stroke="black" cx="243" cy="-106" rx="61.2852" ry="18"/>
<text text-anchor="middle" x="243" y="-101.8" font-family="Times,serif" font-size="14.00">GithubService</text>
</g>
<!-- UrlService&#45;&gt;GithubService -->
<g id="edge5" class="edge"><title>UrlService&#45;&gt;GithubService</title>
<path fill="none" stroke="black" d="M243,-159.697C243,-151.983 243,-142.712 243,-134.112"/>
<polygon fill="black" stroke="black" points="246.5,-134.104 243,-124.104 239.5,-134.104 246.5,-134.104"/>
</g>
<!-- BattleService -->
<g id="node8" class="node"><title>BattleService</title>
<ellipse fill="none" stroke="black" cx="243" cy="-34" rx="57.6156" ry="18"/>
<text text-anchor="middle" x="243" y="-29.8" font-family="Times,serif" font-size="14.00">BattleService</text>
</g>
<!-- GithubService&#45;&gt;BattleService -->
<g id="edge6" class="edge"><title>GithubService&#45;&gt;BattleService</title>
<path fill="none" stroke="black" d="M243,-87.6966C243,-79.9827 243,-70.7125 243,-62.1124"/>
<polygon fill="black" stroke="black" points="246.5,-62.1043 243,-52.1043 239.5,-62.1044 246.5,-62.1043"/>
</g>
<!-- BattleService&#45;&gt;Combatant -->
<g id="edge8" class="edge"><title>BattleService&#45;&gt;Combatant</title>
<path fill="none" stroke="black" d="M211.527,-49.1224C186.875,-60.1842 152.451,-75.6308 126.043,-87.4806"/>
<polygon fill="black" stroke="black" points="124.4,-84.3815 116.71,-91.6688 127.266,-90.7681 124.4,-84.3815"/>
</g>
</g>
</svg>
