<?xml version="1.0" encoding="UTF-8" standalone="no"?>
<!DOCTYPE svg PUBLIC "-//W3C//DTD SVG 1.1//EN"
 "http://www.w3.org/Graphics/SVG/1.1/DTD/svg11.dtd">
<!-- Generated by graphviz version 2.36.0 (20140111.2315)
 -->
<!-- Title: %3 Pages: 1 -->
<svg width="252pt" height="98pt"
 viewBox="0.00 0.00 252.00 98.00" xmlns="http://www.w3.org/2000/svg" xmlns:xlink="http://www.w3.org/1999/xlink">
<g id="graph0" class="graph" transform="scale(1 1) rotate(0) translate(4 94)">
<title>%3</title>
<g id="clust1" class="cluster"><title>cluster_html</title>
<polygon fill="none" stroke="black" points="8,-8 8,-82 100,-82 100,-8 8,-8"/>
<text text-anchor="middle" x="54" y="-66.8" font-family="Times,serif" font-size="14.00">HTML</text>
</g>
<g id="clust2" class="cluster"><title>cluster_css</title>
<polygon fill="none" stroke="black" points="164,-8 164,-82 236,-82 236,-8 164,-8"/>
<text text-anchor="middle" x="200" y="-66.8" font-family="Times,serif" font-size="14.00">CSS</text>
</g>
<!-- element -->
<g id="node1" class="node"><title>element</title>
<ellipse fill="none" stroke="black" cx="54" cy="-34" rx="38.1937" ry="18"/>
<text text-anchor="middle" x="54" y="-29.8" font-family="Times,serif" font-size="14.00">element</text>
</g>
<!-- rules -->
<g id="node2" class="node"><title>rules</title>
<ellipse fill="none" stroke="black" cx="200" cy="-34" rx="27.0958" ry="18"/>
<text text-anchor="middle" x="200" y="-29.8" font-family="Times,serif" font-size="14.00">rules</text>
</g>
<!-- element&#45;&gt;rules -->
<g id="edge1" class="edge"><title>element&#45;&gt;rules</title>
<path fill="none" stroke="black" d="M102.521,-34C125.848,-34 153.066,-34 172.634,-34"/>
<polygon fill="black" stroke="black" points="102.458,-30.5001 92.4584,-34 102.458,-37.5001 102.458,-30.5001"/>
<text text-anchor="middle" x="132" y="-36.8" font-family="Times,serif" font-size="14.00">selector</text>
</g>
</g>
</svg>
