<?xml version="1.0" encoding="UTF-8" standalone="no"?>
<!DOCTYPE svg PUBLIC "-//W3C//DTD SVG 1.1//EN"
 "http://www.w3.org/Graphics/SVG/1.1/DTD/svg11.dtd">
<!-- Generated by graphviz version 2.36.0 (20140111.2315)
 -->
<!-- Title: %3 Pages: 1 -->
<svg width="380pt" height="98pt"
 viewBox="0.00 0.00 380.00 98.00" xmlns="http://www.w3.org/2000/svg" xmlns:xlink="http://www.w3.org/1999/xlink">
<g id="graph0" class="graph" transform="scale(1 1) rotate(0) translate(4 94)">
<title>%3</title>
<!-- WorkerWrapper -->
<g id="node1" class="node"><title>WorkerWrapper</title>
<polygon fill="none" stroke="black" points="210.05,-62 103.95,-62 103.95,-26 210.05,-26 210.05,-62"/>
<text text-anchor="middle" x="157" y="-39.8" font-family="Times,serif" font-size="14.00">WorkerWrapper</text>
</g>
<!-- library_async -->
<g id="node2" class="node"><title>library_async</title>
<ellipse fill="none" stroke="black" cx="309" cy="-72" rx="58.4737" ry="18"/>
<text text-anchor="middle" x="309" y="-67.8" font-family="Times,serif" font-size="14.00">library_async</text>
</g>
<!-- WorkerWrapper&#45;&gt;library_async -->
<g id="edge1" class="edge"><title>WorkerWrapper&#45;&gt;library_async</title>
<path fill="none" stroke="black" d="M210.042,-53.7145C222.527,-56.0451 235.952,-58.5511 248.738,-60.9378"/>
<polygon fill="black" stroke="black" points="248.353,-64.4262 258.825,-62.8207 249.637,-57.5451 248.353,-64.4262"/>
</g>
<!-- library_worker -->
<g id="node4" class="node"><title>library_worker</title>
<ellipse fill="none" stroke="black" cx="309" cy="-18" rx="63.2924" ry="18"/>
<text text-anchor="middle" x="309" y="-13.8" font-family="Times,serif" font-size="14.00">library_worker</text>
</g>
<!-- WorkerWrapper&#45;&gt;library_worker -->
<g id="edge3" class="edge"><title>WorkerWrapper&#45;&gt;library_worker</title>
<path fill="none" stroke="black" d="M210.042,-34.9794C221.167,-33.051 233.039,-30.9932 244.54,-28.9997"/>
<polygon fill="black" stroke="black" points="245.268,-32.4259 254.523,-27.2693 244.072,-25.5287 245.268,-32.4259"/>
</g>
<!-- library_async&#45;&gt;library_worker -->
<g id="edge5" class="edge"><title>library_async&#45;&gt;library_worker</title>
<path fill="none" stroke="gray" d="M309,-53.7902C309,-51.3082 309,-48.8262 309,-46.3443"/>
<polygon fill="gray" stroke="gray" points="312.5,-46.1406 309,-36.1406 305.5,-46.1407 312.5,-46.1406"/>
</g>
<!-- library -->
<g id="node3" class="node"><title>library</title>
<ellipse fill="none" stroke="black" cx="34" cy="-44" rx="33.8596" ry="18"/>
<text text-anchor="middle" x="34" y="-39.8" font-family="Times,serif" font-size="14.00">library</text>
</g>
<!-- library&#45;&gt;WorkerWrapper -->
<g id="edge2" class="edge"><title>library&#45;&gt;WorkerWrapper</title>
<path fill="none" stroke="black" d="M67.7443,-44C75.7789,-44 84.6473,-44 93.5717,-44"/>
<polygon fill="black" stroke="black" points="93.63,-47.5001 103.63,-44 93.63,-40.5001 93.63,-47.5001"/>
</g>
<!-- library&#45;&gt;library_worker -->
<g id="edge4" class="edge"><title>library&#45;&gt;library_worker</title>
<path fill="none" stroke="gray" d="M59.2481,-31.9432C72.1849,-26.1782 88.5785,-19.9098 104,-17 148.502,-8.60303 199.444,-8.84393 239.289,-11.1886"/>
<polygon fill="gray" stroke="gray" points="239.225,-14.6917 249.43,-11.8444 239.677,-7.70633 239.225,-14.6917"/>
</g>
</g>
</svg>
