<?xml version="1.0" encoding="UTF-8" standalone="no"?>
<!DOCTYPE svg PUBLIC "-//W3C//DTD SVG 1.1//EN"
 "http://www.w3.org/Graphics/SVG/1.1/DTD/svg11.dtd">
<!-- Generated by graphviz version 2.36.0 (20140111.2315)
 -->
<!-- Title: %3 Pages: 1 -->
<svg width="744pt" height="128pt"
 viewBox="0.00 0.00 744.00 128.00" xmlns="http://www.w3.org/2000/svg" xmlns:xlink="http://www.w3.org/1999/xlink">
<g id="graph0" class="graph" transform="scale(1 1) rotate(0) translate(4 124)">
<title>%3</title>
<!-- window -->
<g id="node1" class="node"><title>window</title>
<ellipse fill="none" stroke="black" cx="159" cy="-72" rx="38.7042" ry="18"/>
<text text-anchor="middle" x="159" y="-67.8" font-family="Times,serif" font-size="14.00">window</text>
</g>
<!-- makeActions -->
<g id="node2" class="node"><title>makeActions</title>
<polygon fill="none" stroke="black" points="323.869,-86 234.131,-86 234.131,-50 323.869,-50 323.869,-86"/>
<text text-anchor="middle" x="279" y="-63.8" font-family="Times,serif" font-size="14.00">makeActions</text>
</g>
<!-- window&#45;&gt;makeActions -->
<g id="edge1" class="edge"><title>window&#45;&gt;makeActions</title>
<path fill="none" stroke="black" d="M197.66,-70.7234C205.999,-70.4407 214.994,-70.1358 223.843,-69.8358"/>
<polygon fill="black" stroke="black" points="224.241,-73.3245 234.116,-69.4876 224.003,-66.3285 224.241,-73.3245"/>
</g>
<!-- actions -->
<g id="node5" class="node"><title>actions</title>
<ellipse fill="none" stroke="black" cx="395" cy="-68" rx="35.3129" ry="18"/>
<text text-anchor="middle" x="395" y="-63.8" font-family="Times,serif" font-size="14.00">actions</text>
</g>
<!-- makeActions&#45;&gt;actions -->
<g id="edge4" class="edge"><title>makeActions&#45;&gt;actions</title>
<path fill="none" stroke="black" d="M324.075,-68C332.358,-68 341.024,-68 349.325,-68"/>
<polygon fill="black" stroke="black" points="349.586,-71.5001 359.586,-68 349.586,-64.5001 349.586,-71.5001"/>
</g>
<!-- makeEvents -->
<g id="node3" class="node"><title>makeEvents</title>
<polygon fill="none" stroke="black" points="84.422,-36 -0.421953,-36 -0.421953,-0 84.422,-0 84.422,-36"/>
<text text-anchor="middle" x="42" y="-13.8" font-family="Times,serif" font-size="14.00">makeEvents</text>
</g>
<!-- events -->
<g id="node4" class="node"><title>events</title>
<ellipse fill="none" stroke="black" cx="159" cy="-18" rx="32.8994" ry="18"/>
<text text-anchor="middle" x="159" y="-13.8" font-family="Times,serif" font-size="14.00">events</text>
</g>
<!-- makeEvents&#45;&gt;events -->
<g id="edge2" class="edge"><title>makeEvents&#45;&gt;events</title>
<path fill="none" stroke="black" d="M84.5176,-18C94.8437,-18 105.917,-18 116.254,-18"/>
<polygon fill="black" stroke="black" points="116.29,-21.5001 126.29,-18 116.29,-14.5001 116.29,-21.5001"/>
</g>
<!-- events&#45;&gt;makeActions -->
<g id="edge3" class="edge"><title>events&#45;&gt;makeActions</title>
<path fill="none" stroke="black" d="M185.314,-28.7263C197.089,-33.7155 211.555,-39.8455 225.528,-45.7659"/>
<polygon fill="black" stroke="black" points="224.509,-49.1357 235.082,-49.8146 227.24,-42.6904 224.509,-49.1357"/>
</g>
<!-- makeApp -->
<g id="node8" class="node"><title>makeApp</title>
<polygon fill="none" stroke="black" points="736.429,-74 665.571,-74 665.571,-38 736.429,-38 736.429,-74"/>
<text text-anchor="middle" x="701" y="-51.8" font-family="Times,serif" font-size="14.00">makeApp</text>
</g>
<!-- events&#45;&gt;makeApp -->
<g id="edge9" class="edge"><title>events&#45;&gt;makeApp</title>
<path fill="none" stroke="black" d="M191.793,-18C236.805,-18 321.688,-18 394,-18 394,-18 394,-18 504,-18 556.93,-18 616.456,-31.5214 655.874,-42.4329"/>
<polygon fill="black" stroke="black" points="655.118,-45.8563 665.693,-45.2124 657.024,-39.121 655.118,-45.8563"/>
</g>
<!-- makeState -->
<g id="node6" class="node"><title>makeState</title>
<polygon fill="none" stroke="black" points="540.311,-120 465.689,-120 465.689,-84 540.311,-84 540.311,-120"/>
<text text-anchor="middle" x="503" y="-97.8" font-family="Times,serif" font-size="14.00">makeState</text>
</g>
<!-- actions&#45;&gt;makeState -->
<g id="edge5" class="edge"><title>actions&#45;&gt;makeState</title>
<path fill="none" stroke="black" d="M425.246,-77.3807C434.719,-80.4193 445.469,-83.8675 455.862,-87.2009"/>
<polygon fill="black" stroke="black" points="455.071,-90.6229 465.662,-90.3445 457.209,-83.9574 455.071,-90.6229"/>
</g>
<!-- actions&#45;&gt;makeApp -->
<g id="edge8" class="edge"><title>actions&#45;&gt;makeApp</title>
<path fill="none" stroke="black" d="M430.282,-66.6468C485.474,-64.4681 594.022,-60.1833 655.246,-57.7666"/>
<polygon fill="black" stroke="black" points="655.523,-61.2585 665.377,-57.3667 655.247,-54.2639 655.523,-61.2585"/>
</g>
<!-- state -->
<g id="node7" class="node"><title>state</title>
<ellipse fill="none" stroke="black" cx="603" cy="-102" rx="27" ry="18"/>
<text text-anchor="middle" x="603" y="-97.8" font-family="Times,serif" font-size="14.00">state</text>
</g>
<!-- makeState&#45;&gt;state -->
<g id="edge6" class="edge"><title>makeState&#45;&gt;state</title>
<path fill="none" stroke="black" d="M540.213,-102C548.494,-102 557.299,-102 565.588,-102"/>
<polygon fill="black" stroke="black" points="565.734,-105.5 575.734,-102 565.734,-98.5001 565.734,-105.5"/>
</g>
<!-- state&#45;&gt;makeApp -->
<g id="edge7" class="edge"><title>state&#45;&gt;makeApp</title>
<path fill="none" stroke="black" d="M625.306,-91.7911C634.448,-87.4101 645.486,-82.1213 656.238,-76.9694"/>
<polygon fill="black" stroke="black" points="658.052,-79.9811 665.558,-72.5035 655.027,-73.6684 658.052,-79.9811"/>
</g>
</g>
</svg>
