<?xml version="1.0" encoding="UTF-8" standalone="no"?>
<!DOCTYPE svg PUBLIC "-//W3C//DTD SVG 1.1//EN"
 "http://www.w3.org/Graphics/SVG/1.1/DTD/svg11.dtd">
<!-- Generated by graphviz version 2.36.0 (20140111.2315)
 -->
<!-- Title: %3 Pages: 1 -->
<svg width="870pt" height="110pt"
 viewBox="0.00 0.00 870.00 110.00" xmlns="http://www.w3.org/2000/svg" xmlns:xlink="http://www.w3.org/1999/xlink">
<g id="graph0" class="graph" transform="scale(1 1) rotate(0) translate(4 106)">
<title>%3</title>
<!-- window -->
<g id="node1" class="node"><title>window</title>
<ellipse fill="none" stroke="black" cx="39" cy="-23" rx="38.7042" ry="18"/>
<text text-anchor="middle" x="39" y="-18.8" font-family="Times,serif" font-size="14.00">window</text>
</g>
<!-- makeActions -->
<g id="node2" class="node"><title>makeActions</title>
<polygon fill="none" stroke="black" points="203.869,-64 114.131,-64 114.131,-28 203.869,-28 203.869,-64"/>
<text text-anchor="middle" x="159" y="-41.8" font-family="Times,serif" font-size="14.00">makeActions</text>
</g>
<!-- window&#45;&gt;makeActions -->
<g id="edge1" class="edge"><title>window&#45;&gt;makeActions</title>
<path fill="none" stroke="black" d="M74.7657,-29.7764C83.9433,-31.5652 94.0679,-33.5387 104.002,-35.475"/>
<polygon fill="black" stroke="black" points="103.345,-38.9128 113.83,-37.3907 104.685,-32.0421 103.345,-38.9128"/>
</g>
<!-- makeSideEffects -->
<g id="node8" class="node"><title>makeSideEffects</title>
<polygon fill="none" stroke="black" points="861.103,-56 750.897,-56 750.897,-20 861.103,-20 861.103,-56"/>
<text text-anchor="middle" x="806" y="-33.8" font-family="Times,serif" font-size="14.00">makeSideEffects</text>
</g>
<!-- window&#45;&gt;makeSideEffects -->
<g id="edge9" class="edge"><title>window&#45;&gt;makeSideEffects</title>
<path fill="none" stroke="black" d="M75.9702,-17.2555C121.818,-10.443 203.584,-7.10543e-15 274,-0 274,-0 274,-0 585,-0 638.04,-0 697.236,-10.8576 740.853,-20.9653"/>
<polygon fill="black" stroke="black" points="740.214,-24.4108 750.751,-23.3082 741.826,-17.599 740.214,-24.4108"/>
</g>
<!-- actions -->
<g id="node3" class="node"><title>actions</title>
<ellipse fill="none" stroke="black" cx="275" cy="-46" rx="35.3129" ry="18"/>
<text text-anchor="middle" x="275" y="-41.8" font-family="Times,serif" font-size="14.00">actions</text>
</g>
<!-- makeActions&#45;&gt;actions -->
<g id="edge2" class="edge"><title>makeActions&#45;&gt;actions</title>
<path fill="none" stroke="black" d="M204.075,-46C212.358,-46 221.024,-46 229.325,-46"/>
<polygon fill="black" stroke="black" points="229.586,-49.5001 239.586,-46 229.586,-42.5001 229.586,-49.5001"/>
</g>
<!-- makeState -->
<g id="node4" class="node"><title>makeState</title>
<polygon fill="none" stroke="black" points="420.311,-102 345.689,-102 345.689,-66 420.311,-66 420.311,-102"/>
<text text-anchor="middle" x="383" y="-79.8" font-family="Times,serif" font-size="14.00">makeState</text>
</g>
<!-- actions&#45;&gt;makeState -->
<g id="edge3" class="edge"><title>actions&#45;&gt;makeState</title>
<path fill="none" stroke="black" d="M304.128,-56.0835C313.995,-59.6208 325.349,-63.6913 336.283,-67.6107"/>
<polygon fill="black" stroke="black" points="335.139,-70.919 345.734,-70.999 337.502,-64.3296 335.139,-70.919"/>
</g>
<!-- actions&#45;&gt;makeSideEffects -->
<g id="edge8" class="edge"><title>actions&#45;&gt;makeSideEffects</title>
<path fill="none" stroke="black" d="M310.247,-43.8561C351.112,-41.4865 421.513,-38 482,-38 482,-38 482,-38 585,-38 637.332,-38 696.667,-38 740.517,-38"/>
<polygon fill="black" stroke="black" points="740.754,-41.5001 750.754,-38 740.754,-34.5001 740.754,-41.5001"/>
</g>
<!-- state -->
<g id="node5" class="node"><title>state</title>
<ellipse fill="none" stroke="black" cx="483" cy="-84" rx="27" ry="18"/>
<text text-anchor="middle" x="483" y="-79.8" font-family="Times,serif" font-size="14.00">state</text>
</g>
<!-- makeState&#45;&gt;state -->
<g id="edge4" class="edge"><title>makeState&#45;&gt;state</title>
<path fill="none" stroke="black" d="M420.213,-84C428.494,-84 437.299,-84 445.588,-84"/>
<polygon fill="black" stroke="black" points="445.734,-87.5001 455.734,-84 445.734,-80.5001 445.734,-87.5001"/>
</g>
<!-- makeView -->
<g id="node6" class="node"><title>makeView</title>
<polygon fill="none" stroke="black" points="621.808,-102 546.192,-102 546.192,-66 621.808,-66 621.808,-102"/>
<text text-anchor="middle" x="584" y="-79.8" font-family="Times,serif" font-size="14.00">makeView</text>
</g>
<!-- state&#45;&gt;makeView -->
<g id="edge5" class="edge"><title>state&#45;&gt;makeView</title>
<path fill="none" stroke="black" d="M510.011,-84C517.917,-84 526.864,-84 535.715,-84"/>
<polygon fill="black" stroke="black" points="535.995,-87.5001 545.995,-84 535.995,-80.5001 535.995,-87.5001"/>
</g>
<!-- view -->
<g id="node7" class="node"><title>view</title>
<ellipse fill="none" stroke="black" cx="686" cy="-84" rx="27.0958" ry="18"/>
<text text-anchor="middle" x="686" y="-79.8" font-family="Times,serif" font-size="14.00">view</text>
</g>
<!-- makeView&#45;&gt;view -->
<g id="edge6" class="edge"><title>makeView&#45;&gt;view</title>
<path fill="none" stroke="black" d="M621.952,-84C630.575,-84 639.755,-84 648.364,-84"/>
<polygon fill="black" stroke="black" points="648.506,-87.5001 658.506,-84 648.506,-80.5001 648.506,-87.5001"/>
</g>
<!-- view&#45;&gt;makeSideEffects -->
<g id="edge7" class="edge"><title>view&#45;&gt;makeSideEffects</title>
<path fill="none" stroke="black" d="M710.032,-75.0215C721.258,-70.6453 735.293,-65.174 749.101,-59.7911"/>
<polygon fill="black" stroke="black" points="750.541,-62.9864 758.587,-56.0932 747.999,-56.4644 750.541,-62.9864"/>
</g>
</g>
</svg>
