<?xml version="1.0" encoding="UTF-8" standalone="no"?>
<!DOCTYPE svg PUBLIC "-//W3C//DTD SVG 1.1//EN"
 "http://www.w3.org/Graphics/SVG/1.1/DTD/svg11.dtd">
<!-- Generated by graphviz version 2.36.0 (20140111.2315)
 -->
<!-- Title: %3 Pages: 1 -->
<svg width="324pt" height="98pt"
 viewBox="0.00 0.00 324.00 98.00" xmlns="http://www.w3.org/2000/svg" xmlns:xlink="http://www.w3.org/1999/xlink">
<g id="graph0" class="graph" transform="scale(1 1) rotate(0) translate(4 94)">
<title>%3</title>
<!-- function -->
<g id="node1" class="node"><title>function</title>
<ellipse fill="none" stroke="black" cx="40" cy="-45" rx="39.6558" ry="18"/>
<text text-anchor="middle" x="40" y="-40.8" font-family="Times,serif" font-size="14.00">function</text>
</g>
<!-- fromFunction -->
<g id="node2" class="node"><title>fromFunction</title>
<polygon fill="none" stroke="black" points="209.493,-63 116.507,-63 116.507,-27 209.493,-27 209.493,-63"/>
<text text-anchor="middle" x="163" y="-40.8" font-family="Times,serif" font-size="14.00">fromFunction</text>
</g>
<!-- function&#45;&gt;fromFunction -->
<g id="edge1" class="edge"><title>function&#45;&gt;fromFunction</title>
<path fill="none" stroke="black" d="M79.6178,-45C88.0601,-45 97.1592,-45 106.122,-45"/>
<polygon fill="black" stroke="black" points="106.142,-48.5001 116.142,-45 106.142,-41.5001 106.142,-48.5001"/>
</g>
<!-- source -->
<g id="node3" class="node"><title>source</title>
<ellipse fill="none" stroke="black" cx="281" cy="-72" rx="33.3752" ry="18"/>
<text text-anchor="middle" x="281" y="-67.8" font-family="Times,serif" font-size="14.00">source</text>
</g>
<!-- fromFunction&#45;&gt;source -->
<g id="edge2" class="edge"><title>fromFunction&#45;&gt;source</title>
<path fill="none" stroke="black" d="M209.513,-55.5936C219.689,-57.9621 230.403,-60.4558 240.32,-62.7641"/>
<polygon fill="black" stroke="black" points="239.778,-66.2314 250.311,-65.0896 241.364,-59.4136 239.778,-66.2314"/>
</g>
<!-- emitter -->
<g id="node4" class="node"><title>emitter</title>
<ellipse fill="none" stroke="black" cx="281" cy="-18" rx="35.3042" ry="18"/>
<text text-anchor="middle" x="281" y="-13.8" font-family="Times,serif" font-size="14.00">emitter</text>
</g>
<!-- fromFunction&#45;&gt;emitter -->
<g id="edge3" class="edge"><title>fromFunction&#45;&gt;emitter</title>
<path fill="none" stroke="black" d="M209.513,-34.4064C219.116,-32.1714 229.197,-29.8248 238.637,-27.6277"/>
<polygon fill="black" stroke="black" points="239.628,-30.9906 248.574,-25.3147 238.041,-24.1728 239.628,-30.9906"/>
</g>
</g>
</svg>
