<?xml version="1.0" encoding="UTF-8" standalone="no"?>
<!DOCTYPE svg PUBLIC "-//W3C//DTD SVG 1.1//EN"
 "http://www.w3.org/Graphics/SVG/1.1/DTD/svg11.dtd">
<!-- Generated by graphviz version 2.36.0 (20140111.2315)
 -->
<!-- Title: %3 Pages: 1 -->
<svg width="306pt" height="112pt"
 viewBox="0.00 0.00 306.00 112.00" xmlns="http://www.w3.org/2000/svg" xmlns:xlink="http://www.w3.org/1999/xlink">
<g id="graph0" class="graph" transform="scale(1 1) rotate(0) translate(4 108)">
<title>%3</title>
<!-- action -->
<g id="node1" class="node"><title>action</title>
<ellipse fill="none" stroke="black" cx="40" cy="-86" rx="31.9306" ry="18"/>
<text text-anchor="middle" x="40" y="-81.8" font-family="Times,serif" font-size="14.00">action</text>
</g>
<!-- reducer -->
<g id="node2" class="node"><title>reducer</title>
<polygon fill="none" stroke="black" points="173.966,-73 116.034,-73 116.034,-37 173.966,-37 173.966,-73"/>
<text text-anchor="middle" x="145" y="-50.8" font-family="Times,serif" font-size="14.00">reducer</text>
</g>
<!-- action&#45;&gt;reducer -->
<g id="edge1" class="edge"><title>action&#45;&gt;reducer</title>
<path fill="none" stroke="black" d="M68.3317,-77.774C79.9003,-74.2922 93.573,-70.1771 106.092,-66.4093"/>
<polygon fill="black" stroke="black" points="107.255,-69.7144 115.822,-63.4808 105.237,-63.0114 107.255,-69.7144"/>
</g>
<!-- nstate -->
<g id="node3" class="node"><title>nstate</title>
<ellipse fill="none" stroke="black" cx="254" cy="-55" rx="43.0151" ry="18"/>
<text text-anchor="middle" x="254" y="-50.8" font-family="Times,serif" font-size="14.00">new state</text>
</g>
<!-- reducer&#45;&gt;nstate -->
<g id="edge2" class="edge"><title>reducer&#45;&gt;nstate</title>
<path fill="none" stroke="black" d="M174.113,-55C182.211,-55 191.319,-55 200.392,-55"/>
<polygon fill="black" stroke="black" points="200.567,-58.5001 210.567,-55 200.567,-51.5001 200.567,-58.5001"/>
</g>
<!-- ostate -->
<g id="node4" class="node"><title>ostate</title>
<ellipse fill="none" stroke="black" cx="40" cy="-25" rx="39.1897" ry="25.4118"/>
<text text-anchor="middle" x="40" y="-27.8" font-family="Times,serif" font-size="14.00">current</text>
<text text-anchor="middle" x="40" y="-13.8" font-family="Times,serif" font-size="14.00">state</text>
</g>
<!-- ostate&#45;&gt;reducer -->
<g id="edge3" class="edge"><title>ostate&#45;&gt;reducer</title>
<path fill="none" stroke="black" d="M76.1587,-35.2404C85.7609,-38.0371 96.2086,-41.0802 105.963,-43.9213"/>
<polygon fill="black" stroke="black" points="105.233,-47.3542 115.813,-46.7903 107.191,-40.6334 105.233,-47.3542"/>
</g>
</g>
</svg>
