<?xml version="1.0" encoding="UTF-8" standalone="no"?>
<!DOCTYPE svg PUBLIC "-//W3C//DTD SVG 1.1//EN"
 "http://www.w3.org/Graphics/SVG/1.1/DTD/svg11.dtd">
<!-- Generated by graphviz version 2.36.0 (20140111.2315)
 -->
<!-- Title: %3 Pages: 1 -->
<svg width="354pt" height="135pt"
 viewBox="0.00 0.00 354.00 135.50" xmlns="http://www.w3.org/2000/svg" xmlns:xlink="http://www.w3.org/1999/xlink">
<g id="graph0" class="graph" transform="scale(1 1) rotate(0) translate(4 131.496)">
<title>%3</title>
<!-- child -->
<g id="node1" class="node"><title>child</title>
<polygon fill="none" stroke="black" points="208,-54.7539 154,-54.7539 154,-18.7539 208,-18.7539 208,-54.7539"/>
<text text-anchor="middle" x="181" y="-32.5539" font-family="Times,serif" font-size="14.00">child</text>
</g>
<!-- childsinks -->
<g id="node4" class="node"><title>childsinks</title>
<ellipse fill="none" stroke="black" cx="295" cy="-36.7539" rx="45.9459" ry="18"/>
<text text-anchor="middle" x="295" y="-32.5539" font-family="Times,serif" font-size="14.00">childsinks</text>
</g>
<!-- child&#45;&gt;childsinks -->
<g id="edge2" class="edge"><title>child&#45;&gt;childsinks</title>
<path fill="none" stroke="black" d="M208.259,-36.7539C217.372,-36.7539 227.966,-36.7539 238.535,-36.7539"/>
<polygon fill="black" stroke="black" points="238.611,-40.254 248.611,-36.7539 238.611,-33.254 238.611,-40.254"/>
</g>
<!-- parent -->
<g id="node2" class="node"><title>parent</title>
<polygon fill="none" stroke="black" points="208,-108.754 154,-108.754 154,-72.7539 208,-72.7539 208,-108.754"/>
<text text-anchor="middle" x="181" y="-86.5539" font-family="Times,serif" font-size="14.00">parent</text>
</g>
<!-- parentsinks -->
<g id="node6" class="node"><title>parentsinks</title>
<ellipse fill="none" stroke="black" cx="295" cy="-90.7539" rx="50.2723" ry="18"/>
<text text-anchor="middle" x="295" y="-86.5539" font-family="Times,serif" font-size="14.00">parentsinks</text>
</g>
<!-- parent&#45;&gt;parentsinks -->
<g id="edge4" class="edge"><title>parent&#45;&gt;parentsinks</title>
<path fill="none" stroke="black" d="M208.259,-90.7539C216.236,-90.7539 225.347,-90.7539 234.583,-90.7539"/>
<polygon fill="black" stroke="black" points="234.605,-94.254 244.605,-90.7539 234.605,-87.254 234.605,-94.254"/>
</g>
<!-- childsources -->
<g id="node3" class="node"><title>childsources</title>
<ellipse fill="none" stroke="black" cx="59" cy="-36.7539" rx="54.123" ry="18"/>
<text text-anchor="middle" x="59" y="-32.5539" font-family="Times,serif" font-size="14.00">childsources</text>
</g>
<!-- childsources&#45;&gt;child -->
<g id="edge1" class="edge"><title>childsources&#45;&gt;child</title>
<path fill="none" stroke="black" d="M113.333,-36.7539C123.52,-36.7539 133.967,-36.7539 143.479,-36.7539"/>
<polygon fill="black" stroke="black" points="143.758,-40.254 153.758,-36.7539 143.758,-33.254 143.758,-40.254"/>
</g>
<!-- parentsources -->
<g id="node5" class="node"><title>parentsources</title>
<ellipse fill="none" stroke="black" cx="59" cy="-90.7539" rx="58.9494" ry="18"/>
<text text-anchor="middle" x="59" y="-86.5539" font-family="Times,serif" font-size="14.00">parentsources</text>
</g>
<!-- childsinks&#45;&gt;parentsources -->
<g id="edge6" class="edge"><title>childsinks&#45;&gt;parentsources</title>
<path fill="none" stroke="red" d="M263.607,-50.0992C256.728,-53.9241 249.761,-58.5048 244,-63.7539 222.679,-83.1813 233.431,-104.143 208,-117.754 173.67,-136.127 129.134,-123.945 97.9208,-110.564"/>
<polygon fill="red" stroke="red" points="99.2428,-107.321 88.6876,-106.406 96.3681,-113.704 99.2428,-107.321"/>
</g>
<!-- parentsources&#45;&gt;parent -->
<g id="edge3" class="edge"><title>parentsources&#45;&gt;parent</title>
<path fill="none" stroke="black" d="M117.891,-90.7539C126.642,-90.7539 135.454,-90.7539 143.579,-90.7539"/>
<polygon fill="black" stroke="black" points="143.802,-94.254 153.802,-90.7539 143.802,-87.254 143.802,-94.254"/>
</g>
<!-- parentsinks&#45;&gt;childsources -->
<g id="edge5" class="edge"><title>parentsinks&#45;&gt;childsources</title>
<path fill="none" stroke="red" d="M262.562,-76.8218C256.025,-73.1182 249.469,-68.7373 244,-63.7539 222.679,-44.3266 233.431,-23.3644 208,-9.75393 173.462,8.73049 128.592,-3.71205 97.353,-17.1876"/>
<polygon fill="red" stroke="red" points="95.7865,-14.0548 88.1221,-21.3697 98.6753,-20.4309 95.7865,-14.0548"/>
</g>
</g>
</svg>
