<?xml version="1.0" encoding="UTF-8" standalone="no"?>
<!DOCTYPE svg PUBLIC "-//W3C//DTD SVG 1.1//EN"
 "http://www.w3.org/Graphics/SVG/1.1/DTD/svg11.dtd">
<!-- Generated by graphviz version 2.36.0 (20140111.2315)
 -->
<!-- Title: %3 Pages: 1 -->
<svg width="796pt" height="198pt"
 viewBox="0.00 0.00 796.00 198.00" xmlns="http://www.w3.org/2000/svg" xmlns:xlink="http://www.w3.org/1999/xlink">
<g id="graph0" class="graph" transform="scale(1 1) rotate(0) translate(4 194)">
<title>%3</title>
<g id="clust1" class="cluster"><title>cluster_parent</title>
<polygon fill="none" stroke="black" points="102,-8 102,-182 702,-182 702,-8 102,-8"/>
<text text-anchor="middle" x="402" y="-166.8" font-family="Times,serif" font-size="14.00">Nameform</text>
</g>
<g id="clust2" class="cluster"><title>cluster_textentry</title>
<polygon fill="none" stroke="black" points="232,-16 232,-152 572,-152 572,-16 232,-16"/>
<text text-anchor="middle" x="402" y="-136.8" font-family="Times,serif" font-size="14.00">Textentry</text>
</g>
<g id="clust3" class="cluster"><title>cluster_confirm</title>
<polygon fill="none" stroke="black" points="352,-24 352,-112 452,-112 452,-24 352,-24"/>
<text text-anchor="middle" x="402" y="-96.8" font-family="Times,serif" font-size="14.00">Confirm</text>
</g>
<!-- sources -->
<g id="node1" class="node"><title>sources</title>
<ellipse fill="none" stroke="black" cx="37" cy="-57" rx="36.7576" ry="18"/>
<text text-anchor="middle" x="37" y="-52.8" font-family="Times,serif" font-size="14.00">sources</text>
</g>
<!-- textentrysources -->
<g id="node2" class="node"><title>textentrysources</title>
<ellipse fill="none" stroke="black" cx="157" cy="-57" rx="46.497" ry="25.4118"/>
<text text-anchor="middle" x="157" y="-59.8" font-family="Times,serif" font-size="14.00">textentry</text>
<text text-anchor="middle" x="157" y="-45.8" font-family="Times,serif" font-size="14.00">sources</text>
</g>
<!-- sources&#45;&gt;textentrysources -->
<g id="edge6" class="edge"><title>sources&#45;&gt;textentrysources</title>
<path fill="none" stroke="black" d="M73.7241,-57C82.1025,-57 91.2268,-57 100.249,-57"/>
<polygon fill="black" stroke="black" points="100.348,-60.5001 110.348,-57 100.348,-53.5001 100.348,-60.5001"/>
</g>
<!-- confirmsources -->
<g id="node4" class="node"><title>confirmsources</title>
<ellipse fill="none" stroke="black" cx="282" cy="-57" rx="42.2192" ry="25.4118"/>
<text text-anchor="middle" x="282" y="-59.8" font-family="Times,serif" font-size="14.00">confirm</text>
<text text-anchor="middle" x="282" y="-45.8" font-family="Times,serif" font-size="14.00">sources</text>
</g>
<!-- textentrysources&#45;&gt;confirmsources -->
<g id="edge3" class="edge"><title>textentrysources&#45;&gt;confirmsources</title>
<path fill="none" stroke="black" d="M203.801,-57C212.153,-57 220.919,-57 229.425,-57"/>
<polygon fill="black" stroke="black" points="229.626,-60.5001 239.626,-57 229.626,-53.5001 229.626,-60.5001"/>
</g>
<!-- textentrysinks -->
<g id="node3" class="node"><title>textentrysinks</title>
<ellipse fill="none" stroke="black" cx="647" cy="-57" rx="46.497" ry="25.4118"/>
<text text-anchor="middle" x="647" y="-59.8" font-family="Times,serif" font-size="14.00">textentry</text>
<text text-anchor="middle" x="647" y="-45.8" font-family="Times,serif" font-size="14.00">sinks</text>
</g>
<!-- sinks -->
<g id="node7" class="node"><title>sinks</title>
<ellipse fill="none" stroke="black" cx="759" cy="-57" rx="28.0822" ry="18"/>
<text text-anchor="middle" x="759" y="-52.8" font-family="Times,serif" font-size="14.00">sinks</text>
</g>
<!-- textentrysinks&#45;&gt;sinks -->
<g id="edge7" class="edge"><title>textentrysinks&#45;&gt;sinks</title>
<path fill="none" stroke="black" d="M693.694,-57C702.591,-57 711.822,-57 720.42,-57"/>
<polygon fill="black" stroke="black" points="720.528,-60.5001 730.528,-57 720.528,-53.5001 720.528,-60.5001"/>
</g>
<!-- confirmstream -->
<g id="node6" class="node"><title>confirmstream</title>
<ellipse fill="none" stroke="none" cx="402" cy="-57" rx="42.2192" ry="25.4118"/>
<text text-anchor="middle" x="402" y="-59.8" font-family="Times,serif" font-size="14.00" fill="#fffffe">confirm</text>
<text text-anchor="middle" x="402" y="-45.8" font-family="Times,serif" font-size="14.00" fill="#fffffe">stream</text>
</g>
<!-- confirmsources&#45;&gt;confirmstream -->
<g id="edge1" class="edge"><title>confirmsources&#45;&gt;confirmstream</title>
<path fill="none" stroke="black" d="M324.271,-57C332.398,-57 341.019,-57 349.436,-57"/>
<polygon fill="black" stroke="black" points="349.553,-60.5001 359.553,-57 349.553,-53.5001 349.553,-60.5001"/>
</g>
<!-- confirmsinks -->
<g id="node5" class="node"><title>confirmsinks</title>
<ellipse fill="none" stroke="black" cx="522" cy="-57" rx="42.2192" ry="25.4118"/>
<text text-anchor="middle" x="522" y="-59.8" font-family="Times,serif" font-size="14.00">confirm</text>
<text text-anchor="middle" x="522" y="-45.8" font-family="Times,serif" font-size="14.00">sinks</text>
</g>
<!-- confirmsinks&#45;&gt;textentrysinks -->
<g id="edge4" class="edge"><title>confirmsinks&#45;&gt;textentrysinks</title>
<path fill="none" stroke="black" d="M564.299,-57C572.626,-57 581.509,-57 590.236,-57"/>
<polygon fill="black" stroke="black" points="590.367,-60.5001 600.367,-57 590.367,-53.5001 590.367,-60.5001"/>
</g>
<!-- confirmsinks&#45;&gt;confirmsources -->
<g id="edge5" class="edge"><title>confirmsinks&#45;&gt;confirmsources</title>
<path fill="none" stroke="red" d="M502.423,-79.4428C489.789,-92.862 471.813,-108.684 452,-116 410.307,-131.395 393.693,-131.395 352,-116 335.747,-109.999 320.73,-98.2734 308.885,-86.8461"/>
<polygon fill="red" stroke="red" points="311.093,-84.101 301.577,-79.4428 306.111,-89.0185 311.093,-84.101"/>
</g>
<!-- confirmstream&#45;&gt;confirmsinks -->
<g id="edge2" class="edge"><title>confirmstream&#45;&gt;confirmsinks</title>
<path fill="none" stroke="black" d="M444.271,-57C452.398,-57 461.019,-57 469.436,-57"/>
<polygon fill="black" stroke="black" points="469.553,-60.5001 479.553,-57 469.553,-53.5001 469.553,-60.5001"/>
</g>
</g>
</svg>
