<?xml version="1.0" encoding="UTF-8" standalone="no"?>
<!DOCTYPE svg PUBLIC "-//W3C//DTD SVG 1.1//EN"
 "http://www.w3.org/Graphics/SVG/1.1/DTD/svg11.dtd">
<!-- Generated by graphviz version 2.36.0 (20140111.2315)
 -->
<!-- Title: %3 Pages: 1 -->
<svg width="312pt" height="152pt"
 viewBox="0.00 0.00 312.00 152.00" xmlns="http://www.w3.org/2000/svg" xmlns:xlink="http://www.w3.org/1999/xlink">
<g id="graph0" class="graph" transform="scale(1 1) rotate(0) translate(4 148)">
<title>%3</title>
<g id="clust1" class="cluster"><title>cluster_sources</title>
<polygon fill="none" stroke="black" stroke-dasharray="5,2" points="8,-22 8,-96 86,-96 86,-22 8,-22"/>
<text text-anchor="middle" x="47" y="-80.8" font-family="Times,serif" font-size="14.00">sources</text>
</g>
<g id="clust2" class="cluster"><title>cluster_sinks</title>
<polygon fill="none" stroke="black" stroke-dasharray="5,2" points="212,-8 212,-136 296,-136 296,-8 212,-8"/>
<text text-anchor="middle" x="254" y="-120.8" font-family="Times,serif" font-size="14.00">sinks</text>
</g>
<!-- DOM -->
<g id="node1" class="node"><title>DOM</title>
<ellipse fill="none" stroke="black" cx="47" cy="-48" rx="30.988" ry="18"/>
<text text-anchor="middle" x="47" y="-43.8" font-family="Times,serif" font-size="14.00">DOM</text>
</g>
<!-- Textentry -->
<g id="node2" class="node"><title>Textentry</title>
<polygon fill="none" stroke="black" points="183.945,-66 114.055,-66 114.055,-30 183.945,-30 183.945,-66"/>
<text text-anchor="middle" x="149" y="-43.8" font-family="Times,serif" font-size="14.00">Textentry</text>
</g>
<!-- DOM&#45;&gt;Textentry -->
<g id="edge1" class="edge"><title>DOM&#45;&gt;Textentry</title>
<path fill="none" stroke="black" d="M78.0033,-48C86.1906,-48 95.2344,-48 104.026,-48"/>
<polygon fill="black" stroke="black" points="104.164,-51.5001 114.164,-48 104.164,-44.5001 104.164,-51.5001"/>
</g>
<!-- DOMout -->
<g id="node3" class="node"><title>DOMout</title>
<ellipse fill="none" stroke="black" cx="254" cy="-88" rx="30.988" ry="18"/>
<text text-anchor="middle" x="254" y="-83.8" font-family="Times,serif" font-size="14.00">DOM</text>
</g>
<!-- Textentry&#45;&gt;DOMout -->
<g id="edge2" class="edge"><title>Textentry&#45;&gt;DOMout</title>
<path fill="none" stroke="black" d="M183.726,-61.0975C194.889,-65.4326 207.322,-70.2609 218.539,-74.6171"/>
<polygon fill="black" stroke="black" points="217.433,-77.942 228.021,-78.2996 219.967,-71.4168 217.433,-77.942"/>
</g>
<!-- submit -->
<g id="node4" class="node"><title>submit</title>
<ellipse fill="none" stroke="black" cx="254" cy="-34" rx="34.3701" ry="18"/>
<text text-anchor="middle" x="254" y="-29.8" font-family="Times,serif" font-size="14.00">submit</text>
</g>
<!-- Textentry&#45;&gt;submit -->
<g id="edge3" class="edge"><title>Textentry&#45;&gt;submit</title>
<path fill="none" stroke="black" d="M183.726,-43.4159C192.337,-42.2455 201.703,-40.9724 210.684,-39.7516"/>
<polygon fill="black" stroke="black" points="211.163,-43.2189 220.6,-38.4039 210.22,-36.2827 211.163,-43.2189"/>
</g>
</g>
</svg>
