<?xml version="1.0" encoding="UTF-8" standalone="no"?>
<!DOCTYPE svg PUBLIC "-//W3C//DTD SVG 1.1//EN"
 "http://www.w3.org/Graphics/SVG/1.1/DTD/svg11.dtd">
<!-- Generated by graphviz version 2.36.0 (20140111.2315)
 -->
<!-- Title: %3 Pages: 1 -->
<svg width="324pt" height="159pt"
 viewBox="0.00 0.00 324.00 159.00" xmlns="http://www.w3.org/2000/svg" xmlns:xlink="http://www.w3.org/1999/xlink">
<g id="graph0" class="graph" transform="scale(1 1) rotate(0) translate(4 155)">
<title>%3</title>
<g id="clust1" class="cluster"><title>cluster_sources</title>
<polygon fill="none" stroke="black" stroke-dasharray="5,2" points="8,-8 8,-136 104,-136 104,-8 8,-8"/>
<text text-anchor="middle" x="56" y="-120.8" font-family="Times,serif" font-size="14.00">sources</text>
</g>
<g id="clust2" class="cluster"><title>cluster_sinks</title>
<polygon fill="none" stroke="black" stroke-dasharray="5,2" points="224,-15 224,-143 308,-143 308,-15 224,-15"/>
<text text-anchor="middle" x="266" y="-127.8" font-family="Times,serif" font-size="14.00">sinks</text>
</g>
<!-- DOM -->
<g id="node1" class="node"><title>DOM</title>
<ellipse fill="none" stroke="black" cx="56" cy="-88" rx="30.988" ry="18"/>
<text text-anchor="middle" x="56" y="-83.8" font-family="Times,serif" font-size="14.00">DOM</text>
</g>
<!-- Confirm -->
<g id="node3" class="node"><title>Confirm</title>
<polygon fill="none" stroke="black" points="195.177,-86 132.823,-86 132.823,-50 195.177,-50 195.177,-86"/>
<text text-anchor="middle" x="164" y="-63.8" font-family="Times,serif" font-size="14.00">Confirm</text>
</g>
<!-- DOM&#45;&gt;Confirm -->
<g id="edge1" class="edge"><title>DOM&#45;&gt;Confirm</title>
<path fill="none" stroke="black" d="M85.4061,-82.6404C96.8087,-80.4889 110.163,-77.9693 122.547,-75.6326"/>
<polygon fill="black" stroke="black" points="123.48,-79.0184 132.658,-73.7249 122.182,-72.1398 123.48,-79.0184"/>
</g>
<!-- disabled -->
<g id="node2" class="node"><title>disabled</title>
<ellipse fill="none" stroke="black" cx="56" cy="-34" rx="39.6558" ry="18"/>
<text text-anchor="middle" x="56" y="-29.8" font-family="Times,serif" font-size="14.00">disabled</text>
</g>
<!-- disabled&#45;&gt;Confirm -->
<g id="edge2" class="edge"><title>disabled&#45;&gt;Confirm</title>
<path fill="none" stroke="black" d="M88.8035,-44.2011C99.5574,-47.6505 111.705,-51.5469 123.011,-55.1733"/>
<polygon fill="black" stroke="black" points="122.082,-58.551 132.673,-58.2726 124.22,-51.8855 122.082,-58.551"/>
</g>
<!-- DOMout -->
<g id="node4" class="node"><title>DOMout</title>
<ellipse fill="none" stroke="black" cx="266" cy="-95" rx="30.988" ry="18"/>
<text text-anchor="middle" x="266" y="-90.8" font-family="Times,serif" font-size="14.00">DOM</text>
</g>
<!-- Confirm&#45;&gt;DOMout -->
<g id="edge3" class="edge"><title>Confirm&#45;&gt;DOMout</title>
<path fill="none" stroke="black" d="M195.275,-76.1742C205.556,-78.95 217.162,-82.0836 227.913,-84.9864"/>
<polygon fill="black" stroke="black" points="227.32,-88.4518 237.887,-87.6795 229.145,-81.6938 227.32,-88.4518"/>
</g>
<!-- submit -->
<g id="node5" class="node"><title>submit</title>
<ellipse fill="none" stroke="black" cx="266" cy="-41" rx="34.3701" ry="18"/>
<text text-anchor="middle" x="266" y="-36.8" font-family="Times,serif" font-size="14.00">submit</text>
</g>
<!-- Confirm&#45;&gt;submit -->
<g id="edge4" class="edge"><title>Confirm&#45;&gt;submit</title>
<path fill="none" stroke="black" d="M195.275,-59.8258C204.76,-57.2649 215.373,-54.3994 225.402,-51.6916"/>
<polygon fill="black" stroke="black" points="226.43,-55.0392 235.172,-49.0535 224.606,-48.2812 226.43,-55.0392"/>
</g>
</g>
</svg>
