<?xml version="1.0" encoding="UTF-8" standalone="no"?>
<!DOCTYPE svg PUBLIC "-//W3C//DTD SVG 1.1//EN"
 "http://www.w3.org/Graphics/SVG/1.1/DTD/svg11.dtd">
<!-- Generated by graphviz version 2.36.0 (20140111.2315)
 -->
<!-- Title: %3 Pages: 1 -->
<svg width="314pt" height="159pt"
 viewBox="0.00 0.00 314.00 159.00" xmlns="http://www.w3.org/2000/svg" xmlns:xlink="http://www.w3.org/1999/xlink">
<g id="graph0" class="graph" transform="scale(1 1) rotate(0) translate(4 155)">
<title>%3</title>
<g id="clust1" class="cluster"><title>cluster_sources</title>
<polygon fill="none" stroke="black" stroke-dasharray="5,2" points="8,-8 8,-136 86,-136 86,-8 8,-8"/>
<text text-anchor="middle" x="47" y="-120.8" font-family="Times,serif" font-size="14.00">sources</text>
</g>
<g id="clust2" class="cluster"><title>cluster_sinks</title>
<polygon fill="none" stroke="black" stroke-dasharray="5,2" points="220,-15 220,-143 298,-143 298,-15 220,-15"/>
<text text-anchor="middle" x="259" y="-127.8" font-family="Times,serif" font-size="14.00">sinks</text>
</g>
<!-- DOM -->
<g id="node1" class="node"><title>DOM</title>
<ellipse fill="none" stroke="black" cx="47" cy="-88" rx="30.988" ry="18"/>
<text text-anchor="middle" x="47" y="-83.8" font-family="Times,serif" font-size="14.00">DOM</text>
</g>
<!-- Nameform -->
<g id="node3" class="node"><title>Nameform</title>
<polygon fill="none" stroke="black" points="191.142,-86 114.858,-86 114.858,-50 191.142,-50 191.142,-86"/>
<text text-anchor="middle" x="153" y="-63.8" font-family="Times,serif" font-size="14.00">Nameform</text>
</g>
<!-- DOM&#45;&gt;Nameform -->
<g id="edge1" class="edge"><title>DOM&#45;&gt;Nameform</title>
<path fill="none" stroke="black" d="M76.4185,-82.5349C85.1672,-80.8525 95.0457,-78.9527 104.706,-77.095"/>
<polygon fill="black" stroke="black" points="105.478,-80.5107 114.637,-75.1851 104.156,-73.6367 105.478,-80.5107"/>
</g>
<!-- store -->
<g id="node2" class="node"><title>store</title>
<ellipse fill="none" stroke="black" cx="47" cy="-34" rx="27.0958" ry="18"/>
<text text-anchor="middle" x="47" y="-29.8" font-family="Times,serif" font-size="14.00">store</text>
</g>
<!-- store&#45;&gt;Nameform -->
<g id="edge2" class="edge"><title>store&#45;&gt;Nameform</title>
<path fill="none" stroke="black" d="M71.8597,-41.8003C81.7921,-45.0474 93.6847,-48.9354 105.23,-52.7098"/>
<polygon fill="black" stroke="black" points="104.203,-56.0563 114.796,-55.837 106.378,-49.4028 104.203,-56.0563"/>
</g>
<!-- DOMout -->
<g id="node4" class="node"><title>DOMout</title>
<ellipse fill="none" stroke="black" cx="259" cy="-95" rx="30.988" ry="18"/>
<text text-anchor="middle" x="259" y="-90.8" font-family="Times,serif" font-size="14.00">DOM</text>
</g>
<!-- Nameform&#45;&gt;DOMout -->
<g id="edge3" class="edge"><title>Nameform&#45;&gt;DOMout</title>
<path fill="none" stroke="black" d="M191.253,-77.6714C200.755,-80.1383 210.973,-82.7911 220.488,-85.2614"/>
<polygon fill="black" stroke="black" points="219.911,-88.7276 230.47,-87.8528 221.67,-81.9522 219.911,-88.7276"/>
</g>
<!-- storeout -->
<g id="node5" class="node"><title>storeout</title>
<ellipse fill="none" stroke="black" cx="259" cy="-41" rx="27.0958" ry="18"/>
<text text-anchor="middle" x="259" y="-36.8" font-family="Times,serif" font-size="14.00">store</text>
</g>
<!-- Nameform&#45;&gt;storeout -->
<g id="edge4" class="edge"><title>Nameform&#45;&gt;storeout</title>
<path fill="none" stroke="black" d="M191.253,-58.3286C201.744,-55.605 213.108,-52.6546 223.435,-49.9736"/>
<polygon fill="black" stroke="black" points="224.546,-53.3014 233.345,-47.4008 222.787,-46.526 224.546,-53.3014"/>
</g>
</g>
</svg>
